<mxfile host="Electron" modified="2023-06-22T02:32:17.029Z" agent="Mozilla/5.0 (X11; Linux x86_64) AppleWebKit/537.36 (KHTML, like Gecko) draw.io/21.5.0 Chrome/112.0.5615.204 Electron/24.5.1 Safari/537.36" etag="gEowtzTe83XPQL18omCk" version="21.5.0" type="device">
  <diagram name="Page-1" id="nAnqDqby1JWiQAvARGD_">
    <mxGraphModel dx="1434" dy="838" grid="1" gridSize="10" guides="1" tooltips="1" connect="1" arrows="1" fold="1" page="1" pageScale="1" pageWidth="850" pageHeight="1100" math="0" shadow="0">
      <root>
        <mxCell id="0" />
        <mxCell id="1" parent="0" />
        <mxCell id="3mS2IYYyJIlku4cmfmL7-3" value="" style="sketch=0;html=1;dashed=0;whitespace=wrap;fillColor=#2875E2;strokeColor=#ffffff;points=[[0.005,0.63,0],[0.1,0.2,0],[0.9,0.2,0],[0.5,0,0],[0.995,0.63,0],[0.72,0.99,0],[0.5,1,0],[0.28,0.99,0]];verticalLabelPosition=bottom;align=center;verticalAlign=top;shape=mxgraph.kubernetes.icon;prIcon=pod" parent="1" vertex="1">
          <mxGeometry x="400" y="390" width="50" height="48" as="geometry" />
        </mxCell>
        <mxCell id="3mS2IYYyJIlku4cmfmL7-6" value="" style="strokeColor=#dddddd;shadow=1;strokeWidth=1;rounded=1;absoluteArcSize=1;arcSize=2;align=center;" parent="1" vertex="1">
          <mxGeometry x="130" y="120" width="230" height="350" as="geometry" />
        </mxCell>
        <mxCell id="3mS2IYYyJIlku4cmfmL7-7" value="&lt;font color=&quot;#000000&quot;&gt;Records CRD&lt;/font&gt;&lt;br&gt;&lt;hr&gt;" style="sketch=0;dashed=0;connectable=0;html=1;part=1;labelPosition=right;verticalLabelPosition=middle;align=left;verticalAlign=top;spacingLeft=5;fontColor=#999999;fontSize=12;spacingTop=-8;shape=image;image=data:image/svg+xml,PHN2ZyB4bWxucz0iaHR0cDovL3d3dy53My5vcmcvMjAwMC9zdmciIHhtbG5zOnY9Imh0dHBzOi8vdmVjdGEuaW8vbmFubyIgd2lkdGg9IjMyOS45MjU5OTcyMzE3OTM4IiBoZWlnaHQ9IjM3OC4yODQ5OTAzMTEyNzg4IiB2aWV3Qm94PSIwIDAgODcuMjkyOTk5MjY3NTc4MTIgMTAwLjA4Nzk5NzQzNjUyMzQ0Ij4mI3hhOzxzdHlsZSB0eXBlPSJ0ZXh0L2NzcyI+JiN4YTsJLnN0MHtmaWxsOiNhZWNiZmE7fSYjeGE7CS5zdDF7ZmlsbDojNjY5ZGY2O30mI3hhOwkuc3Qye2ZpbGw6IzQyODVmNDt9JiN4YTs8L3N0eWxlPiYjeGE7CTxwYXRoIGNsYXNzPSJzdDAiIGQ9Ik00My43NTEgMEwwIDI1LjQ2NXYyLjU4OCA0Ni45Mmw0My43NTIgMjUuMTE1IDQzLjU0MS0yNS4xMjFWMjUuNDczem0yLjQzOCAxMS44NTNsMzIuMTAzIDE4Ljc4MlY2OS43N0w0My43MzkgODkuNzA1IDkgNjkuNzYyVjMwLjY0MWwzMi4xOS0xOC43MzZ2MTQuMTU0TDI0LjUwMyAzNi4xNTNsMTkuMTcyIDExLjUwMiAxOC44ODYtMTEuNTU0LTE2LjM3Mi0xMC4wMjR6Ii8+JiN4YTsJPHBhdGggY2xhc3M9InN0MSIgZD0iTTIyLjAyNSA0MC40OTZsLjE2NiAxOS4xNDMtMTMuMjQ3IDcuMzN2Mi43NDJsMi42MzcgMS41MTQgMTIuNjQ4LTYuOTk5IDE2Ljk2MSAxMC42MDJWNTEuOTkzeiIvPiYjeGE7CTxwYXRoIGNsYXNzPSJzdDIiIGQ9Ik02NS4zNDQgNDAuMjZMNDYuMTg5IDUxLjk3OXYyMi44NDdsMTYuODk5LTEwLjU3NiAxMi41MzkgNi45NzQgMi42MDktMS41MDV2LTIuNzY1bC0xMi43ODQtNy4xMTJ6Ii8+JiN4YTs8L3N2Zz4=;" parent="3mS2IYYyJIlku4cmfmL7-6" vertex="1">
          <mxGeometry width="42" height="42" relative="1" as="geometry">
            <mxPoint x="5" y="7" as="offset" />
          </mxGeometry>
        </mxCell>
        <mxCell id="3mS2IYYyJIlku4cmfmL7-12" value="&lt;div&gt;apiVersion: dns.par.dev/v1alpha1&lt;/div&gt;&lt;div&gt;kind: Records&lt;/div&gt;&lt;div&gt;metadata:&lt;/div&gt;&lt;div&gt;&amp;nbsp; name: records-sample&lt;/div&gt;&lt;div&gt;&amp;nbsp; namespace: default&lt;/div&gt;&lt;div&gt;spec:&lt;/div&gt;&lt;div&gt;&amp;nbsp; a:&lt;/div&gt;&lt;div&gt;&amp;nbsp; - labels:&lt;/div&gt;&lt;div&gt;&amp;nbsp; &amp;nbsp; &amp;nbsp; app: one&lt;/div&gt;&lt;div&gt;&amp;nbsp; &amp;nbsp; hostname: google.com&lt;/div&gt;&lt;div&gt;&amp;nbsp; &amp;nbsp; ip-addresses:&lt;/div&gt;&lt;div&gt;&amp;nbsp; &amp;nbsp; &amp;nbsp; - 1.1.1.1&lt;/div&gt;&lt;div&gt;&amp;nbsp; &amp;nbsp; &amp;nbsp; - 1.1.1.2&lt;/div&gt;&lt;div&gt;&amp;nbsp; &amp;nbsp; forward-type: proxy&lt;/div&gt;&lt;div&gt;&amp;nbsp; - labels:&lt;/div&gt;&lt;div&gt;&amp;nbsp; &amp;nbsp; &amp;nbsp; app: two&lt;/div&gt;&lt;div&gt;&amp;nbsp; &amp;nbsp; hostname: google.com&lt;/div&gt;&lt;div&gt;&amp;nbsp; &amp;nbsp; ip-addresses:&lt;/div&gt;&lt;div&gt;&amp;nbsp; &amp;nbsp; &amp;nbsp; - 1.1.1.3&lt;/div&gt;&lt;div&gt;&amp;nbsp; &amp;nbsp; &amp;nbsp; - 1.1.1.4&lt;/div&gt;&lt;div&gt;&amp;nbsp; &amp;nbsp; forward-type: manager&lt;/div&gt;&lt;div&gt;&lt;br&gt;&lt;/div&gt;" style="text;html=1;strokeColor=none;fillColor=none;align=left;verticalAlign=middle;whiteSpace=wrap;rounded=0;" parent="3mS2IYYyJIlku4cmfmL7-6" vertex="1">
          <mxGeometry x="41.07380999399167" y="180.005" width="188.92619000600834" height="34.6875" as="geometry" />
        </mxCell>
        <mxCell id="3mS2IYYyJIlku4cmfmL7-4" value="Operator" style="sketch=0;html=1;dashed=0;whitespace=wrap;fillColor=#2875E2;strokeColor=#ffffff;points=[[0.005,0.63,0],[0.1,0.2,0],[0.9,0.2,0],[0.5,0,0],[0.995,0.63,0],[0.72,0.99,0],[0.5,1,0],[0.28,0.99,0]];verticalLabelPosition=bottom;align=center;verticalAlign=top;shape=mxgraph.kubernetes.icon;prIcon=pod" parent="1" vertex="1">
          <mxGeometry x="400" y="120" width="50" height="48" as="geometry" />
        </mxCell>
        <mxCell id="3mS2IYYyJIlku4cmfmL7-13" value="Forward Proxy" style="sketch=0;html=1;dashed=0;whitespace=wrap;fillColor=#2875E2;strokeColor=#ffffff;points=[[0.005,0.63,0],[0.1,0.2,0],[0.9,0.2,0],[0.5,0,0],[0.995,0.63,0],[0.72,0.99,0],[0.5,1,0],[0.28,0.99,0]];verticalLabelPosition=bottom;align=center;verticalAlign=top;shape=mxgraph.kubernetes.icon;prIcon=pod" parent="1" vertex="1">
          <mxGeometry x="575" y="120" width="50" height="48" as="geometry" />
        </mxCell>
        <mxCell id="3mS2IYYyJIlku4cmfmL7-16" value="&lt;div style=&quot;&quot;&gt;&lt;span style=&quot;background-color: initial;&quot;&gt;labels:&lt;/span&gt;&lt;/div&gt;&amp;nbsp; &amp;nbsp; app: one" style="text;html=1;strokeColor=none;fillColor=none;align=left;verticalAlign=middle;whiteSpace=wrap;rounded=0;" parent="1" vertex="1">
          <mxGeometry x="395" y="439" width="95" height="30" as="geometry" />
        </mxCell>
        <mxCell id="3mS2IYYyJIlku4cmfmL7-18" value="" style="sketch=0;html=1;dashed=0;whitespace=wrap;fillColor=#2875E2;strokeColor=#ffffff;points=[[0.005,0.63,0],[0.1,0.2,0],[0.9,0.2,0],[0.5,0,0],[0.995,0.63,0],[0.72,0.99,0],[0.5,1,0],[0.28,0.99,0]];verticalLabelPosition=bottom;align=center;verticalAlign=top;shape=mxgraph.kubernetes.icon;prIcon=pod" parent="1" vertex="1">
          <mxGeometry x="575" y="390" width="50" height="48" as="geometry" />
        </mxCell>
        <mxCell id="3mS2IYYyJIlku4cmfmL7-19" value="&lt;div style=&quot;&quot;&gt;&lt;span style=&quot;background-color: initial;&quot;&gt;labels:&lt;/span&gt;&lt;/div&gt;&amp;nbsp; &amp;nbsp; app: two" style="text;html=1;strokeColor=none;fillColor=none;align=left;verticalAlign=middle;whiteSpace=wrap;rounded=0;" parent="1" vertex="1">
          <mxGeometry x="570" y="438" width="95" height="30" as="geometry" />
        </mxCell>
        <mxCell id="3mS2IYYyJIlku4cmfmL7-23" value="DNS" style="endArrow=classic;html=1;rounded=0;exitX=0.5;exitY=0;exitDx=0;exitDy=0;exitPerimeter=0;" parent="1" source="3mS2IYYyJIlku4cmfmL7-3" edge="1">
          <mxGeometry width="50" height="50" relative="1" as="geometry">
            <mxPoint x="370" y="360" as="sourcePoint" />
            <mxPoint x="425" y="190" as="targetPoint" />
            <Array as="points">
              <mxPoint x="425" y="280" />
            </Array>
          </mxGeometry>
        </mxCell>
        <mxCell id="3mS2IYYyJIlku4cmfmL7-25" value="DNS" style="endArrow=classic;html=1;rounded=0;exitX=0.005;exitY=0.63;exitDx=0;exitDy=0;exitPerimeter=0;entryX=0.995;entryY=0.63;entryDx=0;entryDy=0;entryPerimeter=0;" parent="1" source="3mS2IYYyJIlku4cmfmL7-13" target="3mS2IYYyJIlku4cmfmL7-4" edge="1">
          <mxGeometry width="50" height="50" relative="1" as="geometry">
            <mxPoint x="580" y="270" as="sourcePoint" />
            <mxPoint x="630" y="220" as="targetPoint" />
          </mxGeometry>
        </mxCell>
        <mxCell id="3mS2IYYyJIlku4cmfmL7-31" value="" style="endArrow=none;html=1;rounded=0;exitX=0.5;exitY=0;exitDx=0;exitDy=0;exitPerimeter=0;" parent="1" source="3mS2IYYyJIlku4cmfmL7-18" edge="1">
          <mxGeometry width="50" height="50" relative="1" as="geometry">
            <mxPoint x="585" y="360" as="sourcePoint" />
            <mxPoint x="440" y="280" as="targetPoint" />
            <Array as="points">
              <mxPoint x="600" y="280" />
            </Array>
          </mxGeometry>
        </mxCell>
        <mxCell id="3mS2IYYyJIlku4cmfmL7-33" value="" style="endArrow=classic;html=1;rounded=0;dashed=1;dashPattern=1 1;" parent="1" edge="1">
          <mxGeometry width="50" height="50" relative="1" as="geometry">
            <mxPoint x="600" y="371" as="sourcePoint" />
            <mxPoint x="600" y="200" as="targetPoint" />
          </mxGeometry>
        </mxCell>
        <mxCell id="3mS2IYYyJIlku4cmfmL7-34" value="Traffic" style="edgeLabel;html=1;align=center;verticalAlign=middle;resizable=0;points=[];" parent="3mS2IYYyJIlku4cmfmL7-33" vertex="1" connectable="0">
          <mxGeometry x="0.5574" y="-1" relative="1" as="geometry">
            <mxPoint as="offset" />
          </mxGeometry>
        </mxCell>
      </root>
    </mxGraphModel>
  </diagram>
</mxfile>
